<svg xmlns="http://www.w3.org/2000/svg" viewBox="0 0 197.54 161.27"><defs><style>.cls-1{fill:#fff;}</style></defs><title>Asset 1</title><g id="Layer_2" data-name="Layer 2"><g id="PngoNori"><path d="M193.36,149.42v-.27l2.89-.26,0-.28h-2.7c.66-.82,1.64-.22,2.55-.72l-2.24-.13v-.28H196l0-.26-2-.4,0-.26h1.88l.06-.22-1.59-.75c.1-.89-.26-1.87.57-2.57,0,0,0-.2,0-.3a8.15,8.15,0,0,1,.16-.86,2.82,2.82,0,0,0-.07-2.07l-.11,1.06a1.28,1.28,0,0,1-.45-1.5c.09-.41.85-1.14-.35-1.25-.09,0-.19-.28-.24-.44-.15-.47-.29-.94-.44-1.44l-1.14.3-.3,1-.33,0c0-.78.05-1.55,0-2.32s.93-1.29.19-1.93a4.46,4.46,0,0,0,.38-1.07c.1-1.06.13-2.14.18-3.21,0-.12-.11-.24-.11-.36,0-.63.05-1.26.13-1.88,0-.23.26-.45.26-.67,0-1.52.06-3,.1-4.56,0-.14.15-.27.19-.42a1,1,0,0,0,0-.5c-.2-.7-.43-1.38-.64-2l.61.4.15-.19c-.24-.28-.49-.55-.76-.87l.4-.55,1.16.68.1-.11-1.85-2.44.12-.13,1,.78c.39-1.15.21-1.61-.74-2.22-.17-.1-.24-.34-.34-.5l.92.14v-.9l-.16-.2c-.55.81-.71.47-.78.19l.41-.69c-.68-.32-.14-1-.3-1.44a1.39,1.39,0,0,1,.5.71c.1.3.15.63.22.94.61-1.07-.12-1.7-.86-2.46l.78.09c-.23-.27-.58-.5-.56-.71s.33-.49.51-.74l.18.1c.09.53.17,1.06.25,1.59l.25,0-.24-1.9c-.75,0-1.18-.24-1.23-1l1.41.76v-4.4l-.7-.09c.22.7.46,1.28.59,1.89a1.31,1.31,0,0,1-.78,1.53l-.06-.73-.54.12c.11-.93.63-.23.92-.32-.12-1-.24-1.93-.37-2.94l.73,0-.08-.74h.6a4,4,0,0,1,.17-2.34c0-.13,0-.37-.09-.42s-.31,0-.57,0c.07-.24.09-.7.21-.73,1.14-.24.09-.64.09-1,.08,0,.25,0,.25-.07.06-1.57.1-3.14.15-4.71a4.1,4.1,0,0,1,.06-.49l.33-2.67s0,0-.06,0a2.16,2.16,0,0,1-.09-2.18c0,.38,0,.64,0,.89s0,.46,0,.7c.67-1.25.21-2.37-.45-3.47l.22-.07.63.31c-.06-1.61.48-3.13-.22-4.61,0,.35.08.7.08,1a3.19,3.19,0,0,1-.18.8l-.17,0,.26.58c-.52-.24-.69-2.81-.34-3.7.47.16,0,1.23.86,1,0-.48,0-1-.07-1.28a3,3,0,0,1-.76.06c-.08,0-.2-.36-.15-.42a5.1,5.1,0,0,1,.75-.63l.13.13v-1l-.92.17c0-.56-.08-1-.11-1.41l.53-.14c-.79-2.72-.61-2.6-.2-3.1-.09-.35-.34-.87-.24-1,.9-.72,0-1-.37-1.54l.61-.37V69.13c-.82-.41-.91-2.38-.13-3.09-.53-.54-.41-1,.24-1.27l-.76-2,.34.05c.17-.23.48-.46.5-.71a18.71,18.71,0,0,0,0-2.37,13.77,13.77,0,0,0-.61-4.42l.67-.18c-.23-.41-.41-.74-.6-1.06l.26-.19c.05.12.08.3.17.34a1.51,1.51,0,0,0,.53.09l-.27-.4c-.08-.13-.21-.23-.24-.36-.08-.38-.11-.77-.16-1.16l.51-.19L194,50.88l.16-.14.92.37v.83h.13c0-.43.06-.86.1-1.33-.86.18-1.09-.27-1.15-1.06l1.16.19c-.23-4.38-.47-8.84-.71-13.3l.27-.09c.28.49.58,1,.81,1.46.07.15-.16.42-.11.6.14.47.41.9.54,1.37.34,1.28.63,2.56,1,3.86-1,.46.06.65.2,1a1,1,0,0,0,.05-.54c-.31-1.56-.25-3.19-.71-4.73a3.3,3.3,0,0,1,0-.77c0-.35,0-.69-.06-1a11.32,11.32,0,0,1-.35-1.65c-.43-2.75-.87-5.49-1.27-8.24-.09-.57.23-1.36-.06-1.72-.48-.6-.21-1.17-.31-1.74,0-.18.07-.55.14-.56.63-.08.38-.55.42-.88.08-.54.16-1.08.24-1.59-.06-.85-.11-1.7-.17-2.56l-.31,0-1.05,4.17-.27,0c-.21-.93-.48-1.86-.6-2.81s0-1.68,0-2.52c-.14-2.54-.31-5.09-.47-7.63h-.25v2.29A33.49,33.49,0,0,1,190.74,9c-.39-1.1-1.49-1.3-2.23-1.9a1.3,1.3,0,0,1-.65-1A1.87,1.87,0,0,0,187,4.47V7.59h-.18c-.07-.73-.14-1.47-.22-2.21h-.13l-.17,2.92h-.22c-.07-.92-.15-1.83-.22-2.75l-.13,0c-.05.71-.11,1.42-.16,2.14l-.21,0V5.41l-.21,0c-.13.71-.27,1.43-.4,2.14l-.21,0V5.55l-.27,0L183.5,8a2.9,2.9,0,0,1-.22-.62c-1,0-.26-.73-.52-1l1-.34a4.69,4.69,0,0,0-.81-.71c-2.29-1.2-4.59-2.38-6.89-3.57A13,13,0,0,0,170.09.6c-.71,0-1.42,0-2.14,0a8,8,0,0,1,3.79,1.69l-1.31,1.07,1.24.39c-.76.88-1.67.15-2.46.49l1.91.71,0,.23c-1.25.18-2.46.81-3.8.3l.85-.1V5.16c-.64,0-1.29,0-1.94,0a2,2,0,0,1-.62-.19c-.22-.08-.43-.18-.65-.27s-.4-.15-.6-.21-.5-.14-.75-.2l-.08.17-.6-1c-.25.22-.62.39-.66.62-.13.81.86,0,1,.7-.92-.1-1.82-.19-2.71-.32C160,4.35,159.44,4,159,4.13a1.91,1.91,0,0,1-1.25,0,1.1,1.1,0,0,0-.69,0c-1.07.48-1.2.46-1.63-.45a23.31,23.31,0,0,1-3.37.52,25.47,25.47,0,0,1-3.38-.35c-.43.75-.45.75-1,.14a6.94,6.94,0,0,1-.62.35c-.57-.83-1.5-.17-2.16-.54-.09,0-.24.06-.36.07a18.57,18.57,0,0,1-2.45.28,20.31,20.31,0,0,1-2.42-.26,3.36,3.36,0,0,1,0-.47,2.78,2.78,0,0,1-2.42.62c-.38-.05-.81-.3-1.1-.19-.79.32-1.65-.33-2.4.27-.07.06-.39-.19-.54-.27a3.45,3.45,0,0,1-.91.26c-1.48,0-3,0-4.46,0-.86,0-1.72.1-2.58.08S123.66,4,122.83,4c-1.42,0-2.84.06-4.26,0-.64,0-1.29-.18-1.93-.24a1.25,1.25,0,0,0-.67.07,2,2,0,0,1-2,0,3.31,3.31,0,0,0-1.08-.23c-.42,0-.85,0-1.3,0l-.27.43a3.77,3.77,0,0,0-1-.46c-1.63-.24-3.25.33-4.93,0a14.33,14.33,0,0,0-3.72.27c-.19-.56-1.66-.47-2.35.15l-.22-.44-.7.51c-.58-1-1.49-.37-2.24-.48a12.2,12.2,0,0,0-2.44.1l-.22-.46-2.08.88.61.73c-.92-.08-1.75.33-2.5-.2.19-.46,1.07-.46.65-1.24-.64.37-1.48.5-1.43,1.53l-.16-.51-1-.23,0-.2,1.23-.33,0-.25c-.27,0-.53,0-.79,0a7.16,7.16,0,0,0-.93.12A6.09,6.09,0,0,0,86,3.92c-.48.22-.93.48-1.4.73l-.13-.29,1.19-.53c-.17-.16-.23-.26-.31-.28a5.51,5.51,0,0,0-3.63-.06,1.23,1.23,0,0,1-.67-.07,4.56,4.56,0,0,0-.76-.21c-.9,0-1.81-.49-2.69.06a.16.16,0,0,1-.15,0c-.56-.76-1.16-.29-1.74,0s-.74,0-.88-.47a5,5,0,0,1-.11-.56h-.2v.7L73,3.21l0,.3,1.21.08.22.69-1.77-.23L71,3.82c.07-.78.51-.66.89-.69S72.65,3,73.18,3l-1.12-.55c-.49.2-1,.63-1.41.53s-.91-.66-1.36-1l-.06.17-1.54-.59-.25.6c-.29.74-.74.81-1.32.23a.68.68,0,0,0-.55-.13c-.45.12-.88.3-1.31.46l.07-.25-1-.69L62.67,3,62.52,3l.25-1.27c-.58.34-1,.77-1.48.08l-1.23.77,1.44.68c-.71.86-1.2-.54-1.82.06.06-.46.1-.8.15-1.23H54a1.06,1.06,0,0,0-.43-.25c-.75-.08-1.51-.13-2.26-.17a4.92,4.92,0,0,0-1.09.06c-.16,0-.39.25-.39.38a.55.55,0,0,0,.38.39,7.61,7.61,0,0,0,1.18,0c-.35.41-2.91.52-3.86.11L49,2.25l.42-.62a6.31,6.31,0,0,1-3.53-.31l-1,.79-.37-.59-1.95.57-.18-.29c.31-.37.63-.74,1-1.17L42.18.33c-.36.57-.78.57-1.27.13a.48.48,0,0,0-.38-.08L34.9.89,34,1v.18l1.06.14c-.33.33-.51.64-.76.72a10.8,10.8,0,0,1-1.49.26l-.71-.72L32,1.69l-.07-.55H23.85C24.61.69,25.66,1,26.13,0c-.56,0-1.08.21-1.62.27a13.33,13.33,0,0,0-6.77,3l-.44.36,2.13,1.85c-.32.08-.56.18-.58.14-.33-.56-.76-.22-1.15-.14a2.54,2.54,0,0,1-.54.09c-1.35-.09-2.77.16-3.94-.77l-.54-2.21c-.91,1-.13,2.06-.6,3.19L11.79,3.3l-.29,0V6.11h-.23c-.06-.87-.13-1.73-.2-2.6h-.13l-.16,2.1h-.22V3.41l-.19,0c-.14.67-.28,1.33-.41,2l-.19,0V3.48l-.26-.07c-.27.83-.55,1.65-.85,2.53l-.34-.7C8.13,6.45,8,7.52,7.8,8.59c-.35-1.34.19-2.78-.46-4l-.26,0-.29,1.2-1.38.31c-.14-.29-.25-.51-.42-.83a7.54,7.54,0,0,0-.79,1c-1,1.8-1.88,3.62-2.83,5.42-1.17,2.23-.87,4.67-1,7,.36-1.16.5-2.42,1.47-3.29l1,.88.34-.87h.22v2h.2l.6-1.56h.26c.18,1,.35,2,.53,3.06L4.65,19l-.26-.56a6.78,6.78,0,0,1-1.46,4.48l.69.47.15-.9A.75.75,0,0,1,4,23.1c-.18,1.38-.38,2.75-.56,4.13,0,.1,0,.25,0,.3C4,28.24,3.71,28.66,3,29a15.67,15.67,0,0,1,.42,2.15c0,.68-.14,1.37-.11,2s-.4,1.38.45,1.87l-.56.45.35.23a10.47,10.47,0,0,1-.29,1.24c-.23.65.2,1.21.2,1.82,0,1.13-.12,2.27-.18,3.39L3,42.22s0,.05,0,.13a3.17,3.17,0,0,1,.19,2.55,4.39,4.39,0,0,0,0,1.58c0,.62.23,1.24.26,1.86.08,1.67.11,3.34.16,5,0,.24,0,.47,0,.71,0,.9-.09,1.79-.11,2.69,0,1.3,0,2.6-.08,3.89-.05.68-.36,1.32.06,2a.83.83,0,0,1-.05.75,2.09,2.09,0,0,0-.26,1.7,2.15,2.15,0,0,1-.1.6l.46.31c-.18.23-.46.42-.47.6,0,1.51,0,3,.05,4.52A13.64,13.64,0,0,1,3,74.31a6.07,6.07,0,0,0,.25,2.13c-.16,1.6-.6,2.86,0,4.06-.13.26-.37.51-.33.68a10.89,10.89,0,0,0,.59,1.46l.7-.57-.1,2.14a2.12,2.12,0,0,1-.63-.46,1.14,1.14,0,0,0-.37-.17c0,.16-.07.37,0,.46.3.33.64.62.89.86l-.51,1-.4-1.19c-.12.12-.19.17-.18.2.23.79-.31,1.75.62,2.41.24.18.24.69.36,1l-.17.06c-.15-.3-.29-.61-.44-.91l-.26,0a8.51,8.51,0,0,0-.22,1.49A10.91,10.91,0,0,1,3,91a6.09,6.09,0,0,0-.18,3.25s-.07.14-.08.21c0,.35-.21.76-.09,1.05.29.69.2,1-.61,1.09-.06,0-.11.12-.26.29l.72,0c.1.46.19.85.27,1.24l.27,0c0-.32,0-.64.08-1L3.7,97c-.15.88-.27,1.67-.43,2.45,0,.12-.19.2-.29.3-.1-.13-.25-.25-.28-.4-.07-.4-.09-.8-.16-1.4L2,99.05a2.09,2.09,0,0,1,.41.52c.09.2.15.58.06.66-.8.6-.66,1.63-1.25,2.34.19.08.31.14.43.18.82.33.86.47.31,1.2a.54.54,0,0,0-.08.43c.11.36.26.7.32.87l-.71,1,1.11.56-.07.11-1.06-.22c.16.39.41.73.33.83-.47.64.12.91.37,1.45l.6-1.18.25.07-.3,1.43-.8-.13c-.11,1.3-.21,2.55-.32,3.8a.76.76,0,0,0,0,.15,10.06,10.06,0,0,1-.19,3,3,3,0,0,0,0,.94c0,.18.28.31.42.46a3.64,3.64,0,0,0,.32-.48,1.69,1.69,0,0,0,0-.39c0-.13,0-.25.06-.38l.17,0v3.09c-.65-.33,0-1.46-1-1.46v2.84H1.13l.69.87-.49.31.43,1.63-.26.14-1.13-1c.16,2.8.31,5.4.46,8H1c.05-.22.1-.45.16-.74,1,.31.35,1.32.77,1.6-.36.54-.9,1-.95,1.51A26.32,26.32,0,0,0,1,136.74c0,.68.08,1.35.12,2,0,.21,0,.41,0,.83l-.81-2.18-.28.11c.4,2.7,1.06,5.29,3.19,7.28.55-.81,1.19-.26,1.81-.08a6.71,6.71,0,0,0,1.77,4.14l-.61.81c-.22.3-.45.58-.67.88a1.17,1.17,0,0,0,.1,1.63c.86.94.85,1,.06,2.14,1,.26,1.93.57,2.9.74s2,1.05,2.86.49c.56.17.89.29,1.24.36s.48,0,.69,0c1.08.3,2.16.62,3.23.94a6.83,6.83,0,0,0,2.9.42c.19,0,.51,0,.59.1a1.22,1.22,0,0,0,1.52.47c.13,0,.32.13.49.16.72.13,1.44.27,2.16.35.17,0,.36-.21.74-.44H23.58l-.06-.26a3.47,3.47,0,0,1,.78-.32,2.6,2.6,0,0,1,2.05.44c.08.06.54-.15.54-.21-.08-.84.58-.77,1.07-.92s.95-.28,1.46-.43c-.11-.49-.21-.95-.31-1.37l-1.55-.28c.28-.21.4-.38.52-.38,1.25-.05,2.56-.3,3.7.24a1.18,1.18,0,0,0,1.43-.1c.39.18.72.47,1,.46,1.72-.06,3.44.46,5.15,0a1.26,1.26,0,0,1,.54,0,8.58,8.58,0,0,1,.85.18c.33.1.65.23,1,.33l6.47.25c.14,0,.28.14.42.19s.34.17.48.14c.89-.23,1.76-.49,2.64-.74l-.37.65.17.18,1.19-.89.73.42-1,1.5.1.11,3.3-2.32a1.27,1.27,0,0,1-.33.72,8.26,8.26,0,0,1-.66.57c1.4.54,2.25.25,2.93-.84.13-.2.47-.27.88-.5a5.62,5.62,0,0,0-.5,1.05c0,.07.33.35.45.32a4.88,4.88,0,0,0,1-.49l-.82-.43.88-.46.21.64.75-.41,1.4-.08.14.17c-.16.16-.29.4-.48.45s-.68,0-1,.09a5.82,5.82,0,0,0-.91.38,2.29,2.29,0,0,0,2.65-.63c.14-.18.44-.23.85-.42l-.35.79c1.43-.65,1.65-.63,1.89.17l-2.17.29.06.31,2.51-.29c0-1,.41-1.46,1.23-1.35l-.94,1.56a5.17,5.17,0,0,1,1.39,0,4.91,4.91,0,0,0,2.79,0,7.32,7.32,0,0,1,1.43,0c0-.09.08-.4.16-.77a13.05,13.05,0,0,0-1.79.49,3.2,3.2,0,0,1-2.14-.06c-.22-.06-.39-.37-.58-.56l.16-.16.93.06-.28-.68.8.12-.38.94,3.8-.44c0,.37,0,.6,0,.87l1-.13c-.07.28-.12.48-.18.75l.7-.09c.78-.1,1.57-.44,2.31.21.15.13.54,0,.81,0l.1-.26-.49-.17c.59-.17,1.17-.47,1.29.39a1.09,1.09,0,0,0,.67,0c.14-.07.19-.36.27-.54l.15.4c.24.13.48.35.73.36,1.63.09,3.26.13,4.89.16.18,0,.35-.25.54-.3a1,1,0,0,1,.63,0c.18.07.32.38.46.37,1-.09,2,.58,3.17-.16.59-.39,1.65-.07,2.5-.07v.2h-2v.21a9.64,9.64,0,0,0,2.31.18,9.38,9.38,0,0,0,2.15-.86l.11.19-.34.71c2,0,4,.57,5.9-.21a3,3,0,0,0-1.28.08c-.56.18-1,.27-1.09-.57-.14.18-.19.29-.27.33a1.55,1.55,0,0,1-.47.12s-.11-.22-.07-.26.23-.24.35-.24H101c-.21.5-.21.5-.94.33l-.36.81h1.85c-.08-.33-.31-.73-.19-.91.58-.87.82.47,1.4.15l-.37.67H104v-.16l-.55-.21.26-.71,1.66-.1.11.56,3.59-.72c.12.76.48.7,1,.4a.64.64,0,0,1,1,.08c.17.18.7.09,1,0s.34-.36.62-.67c.21.32.37.58.51.81h1.77c.37-1,3.16-1.08,3.83-.29l1.46-.29.2.73,2.68-.95c0,.44,0,.66,0,1,.47,0,.9,0,1.34,0,.25,0,.5-.13.74-.12.7,0,1.39.16,2.09.18a23.19,23.19,0,0,0,2.36,0,6.61,6.61,0,0,0,1.19-.33c.2-.06.55-.25.58-.2.3.42.54.08.8,0a1.58,1.58,0,0,1,.38,0v.75l1.61-.79-.56,1.06.53.27c.11-.62,1.66-1.2,2.08-.84l.08.6,1.8-.8.15.14-.38,1.13h-1.16a1.56,1.56,0,0,0,.8.18c.27,0,.54.07.81.1a2.07,2.07,0,0,1,.06-.71,1,1,0,0,1,.46-.41,4,4,0,0,1,.75-.21c.12.32.2.55.28.78l-.52.47.05.17,6.16-.44a8.45,8.45,0,0,0,1.41.21c1.1,0,2.19-.17,3.29-.25.44,0,1,.1,1.31-.11.54-.38,1-.2,1.55-.15a18.39,18.39,0,0,0,2.1,0c.42,0,.84-.09,1.26-.13l.11.37-1.9,1c-.56-.68-.84-.07-1.17.28l-.75-.24a.82.82,0,0,1-.55.41,4.66,4.66,0,0,0-2.34.42,4.62,4.62,0,0,1-1.37.38l-.92.29.07.22,2.62-.46c.28,0,.76-.16.83,0,.32.52.59.1.89,0,.58-.11,1.24-.41,1.73-.25.66.23,1,.12,1.36-.39.41.1.83.63,1.11-.12,0-.05.19-.05.29-.06.43,0,.86,0,1.28-.06,1.5-.24,3-.53,4.5-.74s2.91-.18,4.3-.51,2.83.46,4.05-.58c0,0,.09,0,.15,0,.49,0,1,.1,1.47.1s.86,0,.68.66c1,.14,2.14-.29,3,.54.94-.92,2.29,0,3.48-.57-.39-.08-.82-.06-.86-.18-.23-.61-.76-.48-1.18-.57l-3.44-.63-.05-.26a10.42,10.42,0,0,1,1.48-.52,7,7,0,0,1,1.65-.1,33.1,33.1,0,0,0,8.2-.23c1-.18,2-.32,2.95-.48.05,0,.09-.07.16-.14l-.69-.19,0-.24c.44,0,.87.07,1.3,0a1.63,1.63,0,0,0,1-.21c.6-.53,1.16-.81,1.8-.1l1.29-2.56h-.22l1.45-1.64-.17-.2a13.54,13.54,0,0,0,1.56-.18,13.81,13.81,0,0,0,1.5-.49l0-.37Zm-4.31-139L188.16,8A2,2,0,0,1,189.05,10.45Z"/><path d="M120.11,158.51l-3.35,0c-.07-.62-.46-.27-.72-.22-.54.11-1.06.25-1.72.41a2.14,2.14,0,0,0,.57.18c1.48,0,3,.1,4.45.13a2.93,2.93,0,0,0,.93-.16c.12-.05.18-.28.26-.43l-.16-.11C120.28,158.37,120.2,158.5,120.11,158.51Z"/><path d="M125.06,158l-.76.16.34.43c-.1.08-.21.23-.3.22s-.22-.16-.33-.25-.24-.23-.34-.21c-.53.08-1,.21-1.56.33l.06.3H126l.4-.81C125.86,158.32,125.22,159.61,125.06,158Z"/><path d="M94.36,161l-.13-.51c-1,.31-2.08,0-3.16.59,2,.05,2.23,0,2.64-.26.49.47.48.46,1.18.29a1.73,1.73,0,0,1,.64,0,4,4,0,0,1,.58.2l.07-.18-.61-.58Z"/><path d="M28.81,158.41a.3.3,0,0,1-.19.12c-.52,0-1,.1-1.55.1s-1.17-.08-1.76-.12l0,.21,2.47.41,2.25-.78C29.15,157.94,29.16,157.94,28.81,158.41Z"/><path d="M194.74,61.28c.19.73.38,1.47.58,2.21l.27-.07v-3c-.16-.07-.31-.15-.48-.21s-.13,0-.22.06C195.56,60.83,195.55,60.9,194.74,61.28Z"/><path d="M130,158.7c1.08.47,5.08.31,5.42-.13-.94,0-1.85.1-2.76.12S130.92,158.7,130,158.7Z"/><path d="M195.32,69.43c.09-1.53.09-3.06.08-4.58,0,0-.21-.07-.49-.16.8,1,.36,2,.16,2.82S195.38,68.79,195.32,69.43Z"/><path d="M43.91,156.57c1.05-.07,2.12.31,3.14-.14A4.64,4.64,0,0,0,43.91,156.57Z"/><path d="M197.38,87.57V85.79h0c0-.66.08-1.32.13-2.07l-.5.53c.1.49.32.89.2,1.09A2.4,2.4,0,0,0,197.38,87.57Z"/><path d="M97.42,160.67c-.15,0-.31.2-.47.3l.1.18h3.33l0-.17C99.38,160.87,98.4,160.75,97.42,160.67Z"/><path d="M36.18,155.69l.07.18a14.42,14.42,0,0,0,1.71.26,13.92,13.92,0,0,0,1.69-.14,12.77,12.77,0,0,0-2.25-.48A5.22,5.22,0,0,0,36.18,155.69Z"/><path d="M195.39,136.76c.05,0,.12.28.12.43,0,.74,0,1.48,0,2.22a3.37,3.37,0,0,0-.28-3.55C195.18,136.24,194.35,136.68,195.39,136.76Z"/><path d="M46.14.83c.13,0,.23-.38.36-.62l-2,.15-.38.5C44.73.86,45.44.89,46.14.83Z"/><path d="M111.25,157.84c0-.08-.39,0-.6.08.09.19.12.44.27.55.91.65,1.53-.12,2.18-.6a1.16,1.16,0,0,0-.37.07C112.22,158.21,111.72,158.53,111.25,157.84Z"/><path d="M195.26,53.05V57.2h.12V53Z"/><path d="M193.55,124.83c.43-1,.32-2.21,0-2.36Z"/><path d="M193.13,130.94a9.22,9.22,0,0,0,.21-1.3,12.4,12.4,0,0,0-.08-1.36l-.29,0C193.55,129.16,192.22,130,193.13,130.94Z"/><path d="M106.77,157.7l-2.23.21C105.64,158.63,105.69,158.63,106.77,157.7Z"/><path d="M.8,122.36c-.05-.64-.11-1.28-.17-2l-.48.33C.52,121.17-.14,122.13.8,122.36Z"/><path d="M194.55,72.13s.07.31.11.31a.76.76,0,0,0,.46-.13c.57-.73,0-1.21-.43-1.73C194.77,71.11,195.27,71.68,194.55,72.13Z"/><path d="M90.11,160.45l-2.79.59C88.25,160.85,89.42,161.51,90.11,160.45Z"/><path d="M145.86,161.16c1.45.05,1.45.05,1.39-.88Z"/><path d="M50.58,157c.47-.16,1.09.56,1.42-.42C50.75,156.51,50.75,156.51,50.58,157Z"/><path d="M31.84,159.5l0,.13,1.52.16-.3-.76Z"/><path d="M85.8,1.88V1.69H84.12l0,.19Z"/><path d="M108.17,157.75c0,.3,0,.66.18.69a16.34,16.34,0,0,0,1.73.2l.06-.26C109.55,158.05,108.56,158.81,108.17,157.75Z"/><path d="M117.09,157h-1.7l.07.39,1.59-.21Z"/><path d="M194.68,77.23c.68-.72.5-1.22-.16-1.64C194.57,76.11,194.62,76.63,194.68,77.23Z"/><path d="M196.91,88.59c.17.68.33,1.33.5,2C197.43,89.87,197.72,89.08,196.91,88.59Z"/><path d="M197.49,83.18v-1.6C197,82.24,197,82.9,197.49,83.18Z"/><path d="M35.68,159.74l.18.34,1.22-.76-.15-.25Z"/><path class="cls-1" d="M166,33.77l-13.08.4-13.09-.4.41,21.32-.41,21.32L153,76l13.08.4-.43-21.32ZM160.57,71H145.32V39.19h15.25Z"/><polygon class="cls-1" points="95.32 34.82 95.4 33.7 90.16 33.7 90.24 34.77 90.18 64.6 74.49 34.19 74.23 33.7 68.99 33.7 69.12 35.4 69.1 75.34 68.99 76.41 74.23 76.41 74.12 75.27 74.2 45 90.16 76.41 95.4 76.41 95.35 75.5 95.32 34.82"/><path class="cls-1" d="M59.72,32.9H31.47l.17,1.35-.15,17.83h0l.21,23.21-.21,1.12h6.27l-.19-1,.19-20.54h22ZM53.61,49.73h-16V38h16Z"/><polygon class="cls-1" points="130.56 60.96 130.56 56.3 123.14 56.41 115.03 56.3 115.12 58.91 115.03 61.76 125.25 61.76 125.25 70.99 117.44 71.09 110.01 70.99 110.01 39.19 125.25 39.19 125.25 39.18 130.66 39.18 130.71 33.77 117.63 34.17 104.55 33.77 104.95 55.09 104.55 76.41 117.63 76.01 130.71 76.41 130.57 60.96 130.56 60.96"/><path class="cls-1" d="M31.47,84.31c1.76,0,3.53,0,5.29,0a.77.77,0,0,1,.5.35C41,91.31,44.71,98,48.45,104.58c1.84,3.28,3.73,6.52,5.6,9.78.14.24.29.47.44.7V84.15h5.66c-.21,14.23-.26,28.46.06,42.73a1.6,1.6,0,0,1-.29.05H54.55C49,116.32,42.67,106.23,36.73,95.69v31.2H31.47Z"/><path class="cls-1" d="M96,84.56c0,14.35-.61,28.66.79,43H69c1.12-14.33.66-28.64.59-43a84.42,84.42,0,0,0,13.19.58A85.37,85.37,0,0,0,96,84.56Zm-6,37.07V90.07H74.87v31.56Z"/><path class="cls-1" d="M105.11,84.15h25.65V106.5h-5.28a169.6,169.6,0,0,1,8.41,19.38l-5.95,1.83c-.23-.79-.43-1.53-.65-2.27a99.53,99.53,0,0,0-7.43-18.31c-.13-.24-.42-.56-.64-.56-2.72,0-5.45,0-8.19,0v20.34h-5.92Zm19.73,17.09V89.41H110.38v11.83Z"/><path class="cls-1" d="M166.26,90.07h-9.2v31.56h9.2v5.26H141.94v-5.26h9.2V90.42c0-1,0-1-1-1h-8.19V84.15h24.32Z"/><path class="cls-1" d="M181.33,22.6V138.68H16.2V22.6H181.33m3.95-4h-173v124h173v-124Z"/></g></g></svg>